<svg width="86" height="77" viewBox="0 0 86 77" fill="none" xmlns="http://www.w3.org/2000/svg">
<g filter="url(#filter0_i_119_19)">
<path fill-rule="evenodd" clip-rule="evenodd" d="M50.6199 1.08044C51.752 0.39472 53.0798 0 54.5 0C58.0123 0 60.9608 2.41451 61.7761 5.67428C63.0657 4.62738 64.7096 4 66.5 4C70.6421 4 74 7.35786 74 11.5C74 12.0237 73.9463 12.5349 73.8441 13.0283C74.0602 13.0096 74.2791 13 74.5 13C78.6421 13 82 16.3579 82 20.5C82 22.2904 81.3726 23.9343 80.3257 25.2238C83.5854 26.0391 86 28.9876 86 32.5C86 35.4962 84.2432 38.082 81.7034 39.2834C82.5217 40.485 83 41.9366 83 43.5C83 46.1717 81.603 48.5171 79.4996 49.8457C79.4999 49.8972 79.5 49.9487 79.5 50C76.0208 51.3917 73.3888 53.994 70.2354 57.1118C64.4866 62.7958 57.0046 70.1935 39.4958 75.0939C38.1694 76.2794 36.4189 77 34.5 77C31.2785 77 28.5314 74.9689 27.4694 72.1175C26.1462 73.2889 24.4062 74 22.5 74C18.3578 74 15 70.6421 15 66.5C15 66.1417 15.0251 65.7893 15.0737 65.4445C13.8078 66.4199 12.2217 67 10.5 67C6.35785 67 3 63.6421 3 59.5C3 57.2034 4.03223 55.1479 5.65808 53.7722C2.40649 52.9511 0 50.0066 0 46.5C0 43.5598 1.69189 41.0148 4.15515 39.7853C4.13306 39.7124 4.11115 39.6396 4.08942 39.5667C2.21698 38.203 1 35.9936 1 33.5C1 31.1252 2.10376 29.0081 3.82629 27.6339C12.2864 16.2447 24.4649 9.24607 42.5 4.5C45.2263 2.21576 47.9528 1.15859 50.6199 1.08044Z" fill="#F5F0DE"/>
</g>
<defs>
<filter id="filter0_i_119_19" x="0" y="0" width="86" height="80" filterUnits="userSpaceOnUse" color-interpolation-filters="sRGB">
<feFlood flood-opacity="0" result="BackgroundImageFix"/>
<feBlend mode="normal" in="SourceGraphic" in2="BackgroundImageFix" result="shape"/>
<feColorMatrix in="SourceAlpha" type="matrix" values="0 0 0 0 0 0 0 0 0 0 0 0 0 0 0 0 0 0 127 0" result="hardAlpha"/>
<feOffset dy="3"/>
<feGaussianBlur stdDeviation="6.5"/>
<feComposite in2="hardAlpha" operator="arithmetic" k2="-1" k3="1"/>
<feColorMatrix type="matrix" values="0 0 0 0 0.9 0 0 0 0 0.81255 0 0 0 0 0.5025 0 0 0 1 0"/>
<feBlend mode="normal" in2="shape" result="effect1_innerShadow_119_19"/>
</filter>
</defs>
</svg>
